<svg width="22" height="30" viewBox="0 0 22 30" fill="none" xmlns="http://www.w3.org/2000/svg">
<path d="M17.5625 0.9375H4.4375C3.44327 0.938586 2.49007 1.33402 1.78705 2.03705C1.08402 2.74007 0.688586 3.69327 0.6875 4.6875V25.3125C0.688586 26.3067 1.08402 27.2599 1.78705 27.963C2.49007 28.666 3.44327 29.0614 4.4375 29.0625H17.5625C18.5567 29.0614 19.5099 28.666 20.213 27.963C20.916 27.2599 21.3114 26.3067 21.3125 25.3125V4.6875C21.3114 3.69327 20.916 2.74007 20.213 2.03705C19.5099 1.33402 18.5567 0.938586 17.5625 0.9375ZM15.5398 16.6705C15.9834 17.1492 16.2002 17.7932 16.1486 18.4834C16.0473 19.858 14.999 20.9766 13.8125 20.9766C12.626 20.9766 11.576 19.858 11.4758 18.4834C11.4254 17.7861 11.6404 17.141 12.0816 16.667C12.5229 16.193 13.1328 15.9375 13.8125 15.9375C14.1356 15.9329 14.456 15.9956 14.7535 16.1219C15.0509 16.2481 15.3187 16.4349 15.5398 16.6705ZM7.25 4.6875C7.25 4.43886 7.34877 4.2004 7.52459 4.02459C7.7004 3.84877 7.93886 3.75 8.1875 3.75H13.8125C14.0611 3.75 14.2996 3.84877 14.4754 4.02459C14.6512 4.2004 14.75 4.43886 14.75 4.6875C14.75 4.93614 14.6512 5.1746 14.4754 5.35041C14.2996 5.52623 14.0611 5.625 13.8125 5.625H8.1875C7.93886 5.625 7.7004 5.52623 7.52459 5.35041C7.34877 5.1746 7.25 4.93614 7.25 4.6875ZM18.3242 26.0057C18.2567 26.0838 18.1729 26.1462 18.0786 26.1884C17.9843 26.2306 17.882 26.2516 17.7787 26.25H9.84629C9.74303 26.2516 9.64066 26.2306 9.5464 26.1884C9.45215 26.1462 9.36831 26.0838 9.30078 26.0057C9.22757 25.918 9.17502 25.8149 9.14703 25.7042C9.11903 25.5934 9.11631 25.4778 9.13906 25.3658C9.32949 24.3369 9.92305 23.4727 10.8559 22.8662C11.6844 22.3277 12.7344 22.0312 13.8125 22.0312C14.8906 22.0312 15.9406 22.3277 16.7691 22.8662C17.702 23.4727 18.2955 24.3369 18.4859 25.3658C18.5087 25.4778 18.506 25.5934 18.478 25.7042C18.45 25.8149 18.3974 25.918 18.3242 26.0057Z" fill="#FFD028"/>
</svg>
