<svg width="107" height="36" viewBox="0 0 107 36" fill="none" xmlns="http://www.w3.org/2000/svg">
<path d="M18 1.125C15.2041 1.125 12.9375 3.39159 12.9375 6.1875C12.9375 8.98341 15.2041 11.25 18 11.25C20.7959 11.25 23.0625 8.98341 23.0625 6.1875C23.0625 3.39159 20.7959 1.125 18 1.125ZM18 4.5C18.932 4.5 19.6875 5.25551 19.6875 6.1875C19.6875 7.11949 18.932 7.875 18 7.875C17.068 7.875 16.3125 7.11949 16.3125 6.1875C16.3125 5.25551 17.068 4.5 18 4.5ZM7.66195 7.03125C5.95238 7.06957 4.30341 7.97344 3.38597 9.5625C1.98802 11.9839 2.81693 15.0794 5.23828 16.4773C7.65963 17.8753 10.7573 17.0464 12.1553 14.625C13.5532 12.2036 12.7221 9.10814 10.3008 7.71019C9.46842 7.22967 8.55731 7.01128 7.66195 7.03125ZM28.0942 7.03125C27.2782 7.05234 26.4559 7.27334 25.6992 7.71019C23.2779 9.10814 22.4468 12.2036 23.8447 14.625C25.2427 17.0464 28.3404 17.8753 30.7617 16.4773C33.1831 15.0794 34.012 11.9839 32.614 9.5625C31.6529 7.89785 29.8896 6.98463 28.0943 7.03125H28.0942ZM7.73438 10.4062C8.03285 10.3996 8.33583 10.4723 8.61328 10.6327C9.42047 11.0985 9.6968 12.1303 9.23063 12.9375C8.76473 13.7447 7.73297 14.021 6.92578 13.5548C6.11859 13.089 5.84227 12.0572 6.30844 11.25C6.61416 10.7203 7.16456 10.419 7.73438 10.4062ZM28.1843 10.4062C28.7827 10.3908 29.3712 10.6951 29.6916 11.25C30.1578 12.0572 29.8815 13.089 29.0743 13.5548C28.2671 14.021 27.2353 13.7447 26.7694 12.9375C26.3033 12.1303 26.5796 11.0985 27.3868 10.6327C27.6295 10.4916 27.9038 10.4137 28.1844 10.4062H28.1843ZM18.0989 14.6271C17.6476 14.6139 17.1982 14.6913 16.7774 14.8549C16.3566 15.0184 15.9729 15.2647 15.649 15.5792C15.325 15.8937 15.0675 16.27 14.8916 16.6858C14.7158 17.1017 14.6251 17.5485 14.625 18C14.625 18.8951 14.9806 19.7536 15.6135 20.3865C16.2464 21.0194 17.1049 21.375 18 21.375C18.8951 21.375 19.7536 21.0194 20.3865 20.3865C21.0194 19.7536 21.375 18.8951 21.375 18C21.3748 17.1221 21.0326 16.2789 20.421 15.6491C19.8093 15.0194 18.9764 14.6528 18.0989 14.6271ZM7.63327 18.8438C6.81722 18.8648 5.99498 19.0858 5.23828 19.5227C2.81693 20.9206 1.98802 24.0161 3.38597 26.4375C4.78392 28.8589 7.87943 29.6878 10.3008 28.2898C12.7221 26.8919 13.5532 23.7964 12.1553 21.375C11.1941 19.7104 9.42856 18.7971 7.63327 18.8438ZM28.1206 18.8438C26.4111 18.8821 24.7622 19.7859 23.8447 21.375C22.4468 23.7964 23.2779 26.8919 25.6992 28.2898C28.1206 29.6878 31.2161 28.8589 32.614 26.4375C34.012 24.0161 33.1831 20.9206 30.7617 19.5227C29.9294 19.0422 29.0161 18.8238 28.1206 18.8438ZM7.72559 22.2188C8.32395 22.2033 8.91035 22.5076 9.2307 23.0625C9.69687 23.8697 9.42054 24.9015 8.61335 25.3673C7.80616 25.8335 6.7744 25.5572 6.30851 24.75C5.84234 23.9428 6.11866 22.911 6.92585 22.4452C7.16936 22.3041 7.44426 22.2262 7.72559 22.2188ZM28.1931 22.2188C28.4915 22.2121 28.7967 22.2848 29.0742 22.4452C29.8813 22.911 30.1577 23.9428 29.6915 24.75C29.2256 25.5572 28.1938 25.8335 27.3867 25.3673C26.5795 24.9015 26.3031 23.8697 26.7693 23.0625C27.075 22.5328 27.6233 22.2315 28.1931 22.2188ZM18 24.75C15.2041 24.75 12.9375 27.0166 12.9375 29.8125C12.9375 32.6084 15.2041 34.875 18 34.875C20.7959 34.875 23.0625 32.6084 23.0625 29.8125C23.0625 27.0166 20.7959 24.75 18 24.75ZM18 28.125C18.932 28.125 19.6875 28.8805 19.6875 29.8125C19.6875 30.7445 18.932 31.5 18 31.5C17.068 31.5 16.3125 30.7445 16.3125 29.8125C16.3125 28.8805 17.068 28.125 18 28.125Z" fill="#FFD233"/>
<path d="M46.056 23.144C45.496 23.144 44.976 23.04 44.496 22.832C44.016 22.616 43.608 22.324 43.272 21.956C42.936 21.588 42.688 21.164 42.528 20.684L43.728 20.18C43.944 20.732 44.26 21.156 44.676 21.452C45.092 21.748 45.572 21.896 46.116 21.896C46.436 21.896 46.716 21.848 46.956 21.752C47.196 21.648 47.38 21.504 47.508 21.32C47.644 21.136 47.712 20.924 47.712 20.684C47.712 20.356 47.62 20.096 47.436 19.904C47.252 19.712 46.98 19.56 46.62 19.448L44.94 18.92C44.268 18.712 43.756 18.396 43.404 17.972C43.052 17.54 42.876 17.036 42.876 16.46C42.876 15.956 43 15.516 43.248 15.14C43.496 14.756 43.836 14.456 44.268 14.24C44.708 14.024 45.208 13.916 45.768 13.916C46.304 13.916 46.792 14.012 47.232 14.204C47.672 14.388 48.048 14.644 48.36 14.972C48.68 15.3 48.912 15.68 49.056 16.112L47.88 16.628C47.704 16.156 47.428 15.792 47.052 15.536C46.684 15.28 46.256 15.152 45.768 15.152C45.472 15.152 45.212 15.204 44.988 15.308C44.764 15.404 44.588 15.548 44.46 15.74C44.34 15.924 44.28 16.14 44.28 16.388C44.28 16.676 44.372 16.932 44.556 17.156C44.74 17.38 45.02 17.548 45.396 17.66L46.956 18.152C47.668 18.368 48.204 18.68 48.564 19.088C48.924 19.488 49.104 19.988 49.104 20.588C49.104 21.084 48.972 21.524 48.708 21.908C48.452 22.292 48.096 22.596 47.64 22.82C47.184 23.036 46.656 23.144 46.056 23.144ZM50.6935 23V14.06H56.5855V15.32H52.1095V17.888H56.3455V19.148H52.1095V21.74H56.5855V23H50.6935ZM57.9006 23V14.06H59.0406L64.0566 20.984L63.5166 21.068V14.06H64.9206V23H63.7806L58.8006 16.028L59.3166 15.932V23H57.9006ZM68.3557 23V15.32H65.9797V14.06H72.0997V15.32H69.7597V23H68.3557ZM73.1584 23V14.06H74.5744V23H73.1584ZM76.4279 23V14.06H77.5679L82.5839 20.984L82.0439 21.068V14.06H83.4479V23H82.3079L77.3279 16.028L77.8439 15.932V23H76.4279ZM85.299 23V14.06H91.191V15.32H86.715V17.888H90.951V19.148H86.715V21.74H91.191V23H85.299ZM92.506 23V14.06H93.922V21.74H97.786V23H92.506ZM98.1828 23L101.327 14.06H103.079L106.223 23H104.711L104.027 20.996H100.391L99.6948 23H98.1828ZM100.799 19.736H103.595L102.011 15.056H102.407L100.799 19.736Z" fill="#FFD233"/>
</svg>
